<svg width="614" height="248" viewBox="0 0 614 248" fill="none" xmlns="http://www.w3.org/2000/svg">
<path d="M440.723 124.267C440.723 192.407 385.493 247.62 317.369 247.62C278.542 247.62 243.927 229.696 221.326 201.649C204.251 180.489 194.016 153.579 194.016 124.267C194.016 56.1588 249.245 0.945312 317.369 0.945312C346.618 0.945312 373.528 11.1327 394.655 28.1596C422.751 50.7608 440.723 85.4074 440.723 124.267Z" fill="#E7BBBB"/>
<path d="M421.998 105.574C421.998 173.682 366.768 228.895 298.644 228.895C269.38 228.895 242.486 218.708 221.326 201.649C204.251 180.489 194.016 153.579 194.016 124.267C194.016 56.1588 249.245 0.945312 317.369 0.945312C346.618 0.945312 373.528 11.1327 394.655 28.1596C411.762 49.3192 421.998 76.2452 421.998 105.574Z" fill="#ECD8D8"/>
<path d="M288.053 192.503C288.278 184.446 281.198 175.716 266.045 175.716C250.892 175.716 243.812 184.446 244.036 192.503H288.053Z" fill="#E53E3E"/>
<path d="M350.56 133.733C350.351 136.216 349.262 138.443 347.58 140.108C345.898 141.758 343.688 142.815 341.189 143.008L336.288 143.312C289.499 146.067 242.615 146.243 195.795 143.809L191.038 143.552C184.358 143.552 178.416 139.34 176.205 133.045L175.212 130.241C175.212 130.193 175.196 130.129 175.164 130.081C175.308 130.466 175.468 130.818 175.661 131.138C175.853 131.491 176.045 131.827 176.269 132.132C176.285 132.18 176.317 132.196 176.333 132.244C176.542 132.532 176.766 132.788 176.974 133.045C177.262 133.349 177.567 133.653 177.887 133.942C178.143 134.182 178.432 134.39 178.72 134.598C179.329 135.047 180.017 135.431 180.722 135.703C180.77 135.72 180.786 135.752 180.818 135.752C181.171 135.896 181.523 136.008 181.876 136.104C182.18 136.2 182.516 136.264 182.837 136.312C183.221 136.376 183.573 136.424 183.942 136.456L188.699 136.713C235.519 139.147 282.404 138.971 329.192 136.216L334.093 135.912C336.592 135.72 338.802 134.662 340.484 133.013C342.166 131.363 343.239 129.12 343.464 126.637C345.802 97.9655 345.818 69.1333 343.512 40.4774L343.464 39.8687C343.303 37.9626 342.615 36.1846 341.557 34.727C341.445 34.5668 341.317 34.3906 341.173 34.2625C340.965 34.0062 340.725 33.7499 340.484 33.5096C339.299 32.3243 337.825 31.4593 336.175 30.9628L337.873 31.4113C344.969 33.3174 349.967 39.5483 350.527 46.8685C350.527 46.9005 350.527 46.9166 350.527 46.9486L350.576 47.5573C352.914 76.2292 352.882 105.045 350.56 133.733Z" fill="#B12E2E"/>
<path d="M341.19 143.008L336.288 143.296C289.5 146.067 242.6 146.227 195.812 143.792L191.022 143.536C185.993 143.216 181.956 139.259 181.556 134.246L181.492 133.477C179.185 104.965 179.185 76.3253 181.492 47.8295L181.556 46.9806C181.956 41.999 185.945 38.0426 190.926 37.6902C240.966 34.7109 291.134 34.7109 341.174 37.6902C346.171 38.0426 350.144 41.999 350.544 46.9806L350.592 47.5733C352.899 76.2452 352.899 105.061 350.544 133.733C350.16 138.699 346.171 142.639 341.19 143.008Z" fill="#B12E2E"/>
<path d="M334.108 135.928L329.206 136.216C282.418 138.987 235.518 139.147 188.73 136.713L183.94 136.456C178.911 136.136 174.874 132.18 174.474 127.166L174.41 126.397C172.103 97.8854 172.103 69.2455 174.41 40.7497L174.474 39.9008C174.874 34.9192 178.863 30.9628 183.844 30.6104C233.884 27.6311 284.052 27.6311 334.092 30.6104C339.089 30.9628 343.062 34.9192 343.462 39.9008L343.51 40.4934C345.817 69.1654 345.801 97.9815 343.462 126.653C343.078 131.635 339.089 135.575 334.108 135.928Z" fill="#E53E3E"/>
<path d="M236.721 98.0455C236.096 98.0455 235.456 97.8053 234.975 97.3247L210.596 72.9456C209.635 71.9845 209.635 70.4147 210.596 69.4537C211.557 68.4926 213.127 68.4926 214.088 69.4537L238.467 93.8328C239.428 94.7939 239.428 96.3637 238.467 97.3247C237.97 97.8053 237.346 98.0455 236.721 98.0455Z" fill="white"/>
<path d="M212.935 98.0455C212.311 98.0455 211.67 97.8053 211.19 97.3247C210.228 96.3637 210.228 94.7939 211.19 93.8328L235.553 69.4537C236.514 68.4926 238.084 68.4926 239.045 69.4537C240.006 70.4147 240.006 71.9845 239.045 72.9456L214.681 97.3247C214.201 97.8053 213.56 98.0455 212.935 98.0455Z" fill="white"/>
<path d="M304.998 98.0455C304.374 98.0455 303.733 97.8053 303.252 97.3247L278.873 72.9456C277.912 71.9845 277.912 70.4147 278.873 69.4537C279.834 68.4926 281.404 68.4926 282.365 69.4537L306.728 93.8328C307.689 94.7939 307.689 96.3637 306.728 97.3247C306.264 97.8053 305.639 98.0455 304.998 98.0455Z" fill="white"/>
<path d="M281.228 98.0455C280.604 98.0455 279.963 97.8053 279.483 97.3247C278.521 96.3637 278.521 94.7939 279.483 93.8328L303.862 69.4537C304.823 68.4926 306.393 68.4926 307.354 69.4537C308.315 70.4147 308.315 71.9845 307.354 72.9456L282.974 97.3247C282.494 97.8053 281.853 98.0455 281.228 98.0455Z" fill="white"/>
<path d="M83.485 235.911V199.038H14.3359V168.332L57.0876 12.6544H116.338V170.19H133.477V199.038H116.338V235.911H83.485ZM44.4815 170.19H83.485V41.5506L44.4815 170.19Z" fill="#B12E2E"/>
<path d="M69.1491 235.911V199.038H0V168.332L42.7516 12.6544H102.002V170.19H119.141V199.038H102.002V235.911H69.1491ZM30.1296 170.19H69.133V41.5506L30.1296 170.19Z" fill="#E53E3E"/>
<path d="M563.411 235.911V199.038H494.262V168.332L537.013 12.6544H596.263V170.19H613.402V199.038H596.263V235.911H563.411ZM524.391 170.19H563.395V41.5506L524.391 170.19Z" fill="#B12E2E"/>
<path d="M549.059 235.911V199.038H479.91V168.332L522.662 12.6544H581.912V170.19H599.051V199.038H581.912V235.911H549.059ZM510.056 170.19H549.059V41.5506L510.056 170.19Z" fill="#E53E3E"/>
</svg>
