<svg width="157" height="36" viewBox="0 0 157 36" fill="none" xmlns="http://www.w3.org/2000/svg">
<path d="M41.8686 1.71661C41.0517 0.998824 39.905 0.730384 38.7161 0.980344L11.7227 6.66329C11.06 6.80237 10.4798 7.08929 10.0135 7.48319L7.52668 2.89152C7.3853 2.63086 7.16048 2.42369 6.88657 2.30406L1.88648 0.113752C1.21005 -0.182893 0.414825 0.12056 0.115389 0.792631C-0.185029 1.4647 0.121281 2.25057 0.800657 2.54721L5.37859 4.55273L7.90662 9.21832L15.3022 22.6101L16.2987 24.4416C17.2245 26.0843 19.2174 27.1619 21.1358 27.1619C21.4696 27.1619 21.8014 27.1289 22.1244 27.0608L28.4499 25.7283L28.4509 25.7332C28.4509 25.7332 35.0758 24.3336 37.6058 23.8006C38.2478 23.6674 38.4137 23.9669 38.455 24.1595C38.4962 24.3511 38.4687 24.6935 37.8257 24.8296L24.4541 27.6444C21.7298 28.2182 20.2287 30.1391 20.3337 32.9139C20.3347 32.9363 20.3406 32.9577 20.3425 32.9801C20.3141 33.2582 20.316 33.5442 20.3779 33.833C20.694 35.3036 22.1274 36.248 23.5794 35.9426C25.0314 35.6372 25.9523 34.1968 25.6372 32.7262C25.428 31.7546 24.729 31.0222 23.8612 30.7188C24.1616 30.5058 24.5376 30.3463 25.0118 30.247L34.3895 28.2727C33.4529 28.8553 32.9306 29.9835 33.179 31.138C33.4942 32.6085 34.9285 33.5529 36.3805 33.2475C37.8335 32.9412 38.7544 31.5017 38.4383 30.0311C38.1909 28.8757 37.2513 28.0558 36.1567 27.9011L38.3833 27.4323C39.6351 27.1687 40.3066 26.487 40.6492 25.9617C41.1038 25.2654 41.2569 24.4289 41.0802 23.6071C40.7562 22.0966 39.2325 20.735 37.0462 21.1999C36.5445 21.3059 35.8798 21.4459 35.1386 21.6016C35.1366 21.6016 35.1347 21.6016 35.1327 21.6025L21.5648 24.46C20.6115 24.6594 19.3402 24.1225 18.7698 23.3279C18.9052 23.3386 19.0407 23.3561 19.1762 23.3561C19.51 23.3561 19.8418 23.3231 20.1648 23.255L37.8178 19.5377C39.9983 19.0786 41.8627 16.9963 42.0639 14.7982L42.9828 4.73169C43.0908 3.53246 42.6854 2.43439 41.8686 1.71661ZM29.6103 10.721L23.9917 11.9037L22.9442 7.02023L28.5628 5.83754L29.6103 10.721ZM24.5504 14.5064L30.1689 13.3237L31.2165 18.2072L25.5979 19.3898L24.5504 14.5064ZM39.2738 3.58207C39.3837 3.55873 39.4878 3.54705 39.584 3.54705C39.7931 3.54705 39.9659 3.60152 40.0857 3.70656C40.2604 3.86023 40.339 4.1384 40.3066 4.49048L39.9365 8.54722L32.2375 10.1686L31.19 5.2851L39.2738 3.58207ZM11.5902 9.70657C11.6874 9.49552 11.9318 9.33893 12.2803 9.26501L20.316 7.57267L21.3636 12.4561L13.7137 14.0668L11.7099 10.5099C11.5362 10.2036 11.4949 9.91763 11.5902 9.70657ZM19.6052 20.6523C18.5852 20.8643 17.1921 20.2409 16.6835 19.3383L15.0842 16.5002L21.9222 15.0598L22.9697 19.9433L19.6052 20.6523ZM37.2582 16.935L33.8437 17.6537L32.7961 12.7703L39.6832 11.3201L39.3876 14.557C39.2944 15.587 38.2783 16.72 37.2582 16.935Z" fill="#E53E3E"/>
<path d="M59.7685 18.6453H64.297L71.1348 28.4297H66.0665L59.7685 18.6453ZM55 7.42019H59.2886V28.4297H55V7.42019ZM57.6092 11.0819V7.42019H62.0477C63.7072 7.42019 65.1168 7.70032 66.2764 8.26057C67.436 8.82083 68.3257 9.60118 68.9455 10.6016C69.5653 11.6021 69.8752 12.7726 69.8752 14.1132C69.8752 15.4338 69.5653 16.6044 68.9455 17.6248C68.3257 18.6253 67.436 19.4056 66.2764 19.9659C65.1168 20.5261 63.7072 20.8063 62.0477 20.8063H57.6092V17.3847H61.7778C62.5376 17.3847 63.1874 17.2647 63.7272 17.0246C64.287 16.7644 64.7169 16.4043 65.0168 15.9441C65.3167 15.4638 65.4667 14.8936 65.4667 14.2333C65.4667 13.573 65.3167 13.0127 65.0168 12.5525C64.7169 12.0723 64.287 11.7121 63.7272 11.472C63.1874 11.2119 62.5376 11.0819 61.7778 11.0819H57.6092Z" fill="#1A1A1A"/>
<path d="M76.6266 17.925C76.6266 19.2656 76.9065 20.4561 77.4663 21.4966C78.0262 22.5371 78.7959 23.3574 79.7756 23.9577C80.7553 24.558 81.8949 24.8581 83.1945 24.8581C84.4941 24.8581 85.6337 24.558 86.6134 23.9577C87.5931 23.3574 88.3529 22.5371 88.8927 21.4966C89.4525 20.4561 89.7324 19.2656 89.7324 17.925C89.7324 16.5844 89.4625 15.3938 88.9227 14.3533C88.3829 13.3129 87.6231 12.4925 86.6434 11.8922C85.6637 11.292 84.5141 10.9918 83.1945 10.9918C81.8949 10.9918 80.7553 11.292 79.7756 11.8922C78.7959 12.4925 78.0262 13.3129 77.4663 14.3533C76.9065 15.3938 76.6266 16.5844 76.6266 17.925ZM72.0981 17.925C72.0981 16.3242 72.378 14.8636 72.9378 13.543C73.4976 12.2024 74.2774 11.0418 75.277 10.0614C76.2767 9.08095 77.4463 8.33061 78.7859 7.81037C80.1455 7.27012 81.615 7 83.1945 7C84.794 7 86.2635 7.27012 87.6031 7.81037C88.9427 8.33061 90.1123 9.08095 91.112 10.0614C92.1317 11.0418 92.9114 12.2024 93.4512 13.543C94.0111 14.8636 94.291 16.3242 94.291 17.925C94.291 19.5057 94.0111 20.9764 93.4512 22.337C92.9114 23.6776 92.1417 24.8481 91.142 25.8486C90.1623 26.849 88.9927 27.6294 87.6331 28.1896C86.2935 28.7299 84.814 29 83.1945 29C81.575 29 80.0855 28.7299 78.7259 28.1896C77.3864 27.6294 76.2167 26.849 75.2171 25.8486C74.2174 24.8481 73.4476 23.6776 72.9078 22.337C72.368 20.9764 72.0981 19.5057 72.0981 17.925Z" fill="#1A1A1A"/>
<path d="M97.3064 7.42019H101.655V28.4297H97.3064V7.42019Z" fill="#1A1A1A"/>
<path d="M107.71 21.3765C108.15 22.1569 108.63 22.8372 109.15 23.4175C109.689 23.9977 110.279 24.4479 110.919 24.7681C111.559 25.0882 112.249 25.2483 112.988 25.2483C113.848 25.2483 114.548 25.0282 115.088 24.588C115.628 24.1478 115.897 23.5475 115.897 22.7872C115.897 22.1269 115.727 21.5966 115.388 21.1965C115.068 20.7963 114.578 20.4461 113.918 20.146C113.278 19.8258 112.489 19.4857 111.549 19.1255C111.049 18.9454 110.469 18.7053 109.809 18.4052C109.17 18.085 108.56 17.6849 107.98 17.2046C107.4 16.7044 106.92 16.1041 106.54 15.4038C106.161 14.6835 105.971 13.8231 105.971 12.8226C105.971 11.6221 106.271 10.5916 106.87 9.73124C107.49 8.85084 108.32 8.18054 109.36 7.72033C110.419 7.24011 111.599 7 112.898 7C114.238 7 115.388 7.2301 116.347 7.69031C117.327 8.13051 118.137 8.70077 118.777 9.40109C119.436 10.0814 119.946 10.7917 120.306 11.5321L116.947 13.3929C116.667 12.8927 116.327 12.4425 115.927 12.0423C115.548 11.6221 115.108 11.292 114.608 11.0518C114.108 10.7917 113.538 10.6617 112.898 10.6617C112.059 10.6617 111.429 10.8618 111.009 11.2619C110.589 11.6421 110.379 12.0923 110.379 12.6126C110.379 13.1328 110.549 13.593 110.889 13.9932C111.229 14.3734 111.749 14.7435 112.449 15.1037C113.148 15.4438 114.028 15.794 115.088 16.1542C115.767 16.3943 116.417 16.6944 117.037 17.0546C117.677 17.4147 118.247 17.8549 118.747 18.3752C119.266 18.8754 119.666 19.4757 119.946 20.176C120.246 20.8563 120.396 21.6467 120.396 22.5471C120.396 23.5675 120.196 24.4779 119.796 25.2783C119.396 26.0787 118.846 26.759 118.147 27.3192C117.447 27.8595 116.657 28.2697 115.777 28.5498C114.918 28.8499 114.008 29 113.048 29C111.769 29 110.569 28.7599 109.449 28.2797C108.35 27.7794 107.39 27.1091 106.57 26.2688C105.751 25.4284 105.111 24.518 104.651 23.5375L107.71 21.3765Z" fill="#1A1A1A"/>
<path d="M126.352 28.4297V24.7981H136.938V28.4297H126.352ZM126.352 11.0518V7.42019H136.938V11.0518H126.352ZM126.352 19.0655V15.4939H136.338V19.0655H126.352ZM123.593 7.42019H127.731V28.4297H123.593V7.42019Z" fill="#1A1A1A"/>
<path d="M145.634 18.6453H150.162L157 28.4297H151.932L145.634 18.6453ZM140.865 7.42019H145.154V28.4297H140.865V7.42019ZM143.474 11.0819V7.42019H147.913C149.572 7.42019 150.982 7.70032 152.142 8.26057C153.301 8.82083 154.191 9.60118 154.811 10.6016C155.43 11.6021 155.74 12.7726 155.74 14.1132C155.74 15.4338 155.43 16.6044 154.811 17.6248C154.191 18.6253 153.301 19.4056 152.142 19.9659C150.982 20.5261 149.572 20.8063 147.913 20.8063H143.474V17.3847H147.643C148.403 17.3847 149.053 17.2647 149.592 17.0246C150.152 16.7644 150.582 16.4043 150.882 15.9441C151.182 15.4638 151.332 14.8936 151.332 14.2333C151.332 13.573 151.182 13.0127 150.882 12.5525C150.582 12.0723 150.152 11.7121 149.592 11.472C149.053 11.2119 148.403 11.0819 147.643 11.0819H143.474Z" fill="#1A1A1A"/>
</svg>
